<svg xmlns="http://www.w3.org/2000/svg" version="1.1" xmlns:xlink="http://www.w3.org/1999/xlink" xmlns:svgjs="http://svgjs.dev/svgjs" width="1500" height="1500" viewBox="0 0 1500 1500"><rect width="1500" height="1500" fill="#000000"></rect><g transform="matrix(0.6666666666666666,0,0,0.6666666666666666,249.39393939393938,588.7845212313528)"><svg viewBox="0 0 396 128" data-background-color="#f9f9f9" preserveAspectRatio="xMidYMid meet" height="484" width="1500" xmlns="http://www.w3.org/2000/svg" xmlns:xlink="http://www.w3.org/1999/xlink"><g id="tight-bounds" transform="matrix(1,0,0,1,0.2400000000000091,-0.0467522240076903)"><svg viewBox="0 0 395.52 128.09350444801538" height="128.09350444801538" width="395.52"><g><svg viewBox="0 0 638.6081150732489 206.82026554579775" height="128.09350444801538" width="395.52"><g transform="matrix(1,0,0,1,243.08811507324884,28.583698060236884)"><svg viewBox="0 0 395.52 149.65286942532398" height="149.65286942532398" width="395.52"><g id="textblocktransform"><svg viewBox="0 0 395.52 149.65286942532398" height="149.65286942532398" width="395.52" id="textblock"><g><svg viewBox="0 0 395.52 99.22145997510574" height="99.22145997510574" width="395.52"><rect width="395.52" height="99.22145997510574" x="0" y="0" opacity="1" fill="#ffffff" data-fill-palette-color="tertiary"></rect><g transform="matrix(1,0,0,1,23.461705032,23.461705032)"><svg width="348.596589936" viewBox="2.56 -39.11 347.9 52.2" height="52.29804991110574" data-palette-color="#f9f9f9"><path d="M18.85-27.86L21.31-31.15 21.31-31.64 16.7-31.47 3.54-31.47 4.35-35.77 28.42-35.77 28.42-33.74 12.18-7.86 9.74-4.57 9.74-4.1 14.31-4.3 29.79-4.3 28.98 0 2.56 0 2.56-1.88 18.85-27.86ZM36.33 0L36.33-25.88 42.26-25.88 42.26 0 36.33 0ZM39.28-30.98L39.28-30.98Q38.5-30.98 37.85-31.24 37.2-31.49 36.73-31.93 36.25-32.37 36-32.98 35.74-33.59 35.74-34.3L35.74-34.3Q35.74-35.03 36.02-35.66 36.3-36.28 36.8-36.76 37.3-37.23 37.97-37.5 38.64-37.77 39.43-37.77L39.43-37.77Q40.18-37.77 40.82-37.5 41.45-37.23 41.92-36.78 42.38-36.33 42.65-35.71 42.92-35.08 42.92-34.38L42.92-34.38Q42.92-33.64 42.64-33.02 42.36-32.4 41.86-31.95 41.35-31.49 40.7-31.24 40.04-30.98 39.28-30.98ZM50.46 0L50.46-39.11 56.37-39.11 56.37 0 50.46 0ZM64.81 0L64.81-39.11 70.72-39.11 70.72 0 64.81 0ZM78.85 0L78.85-25.88 84.78-25.88 84.78 0 78.85 0ZM81.8-30.98L81.8-30.98Q81.02-30.98 80.37-31.24 79.73-31.49 79.25-31.93 78.77-32.37 78.52-32.98 78.26-33.59 78.26-34.3L78.26-34.3Q78.26-35.03 78.54-35.66 78.82-36.28 79.32-36.76 79.82-37.23 80.5-37.5 81.17-37.77 81.95-37.77L81.95-37.77Q82.7-37.77 83.34-37.5 83.97-37.23 84.44-36.78 84.9-36.33 85.17-35.71 85.44-35.08 85.44-34.38L85.44-34.38Q85.44-33.64 85.16-33.02 84.88-32.4 84.38-31.95 83.88-31.49 83.22-31.24 82.56-30.98 81.8-30.98ZM103.92 0.49L103.92 0.49Q100.87 0.49 98.53-0.54 96.2-1.56 94.62-3.31 93.03-5.05 92.21-7.35 91.39-9.64 91.39-12.21L91.39-12.21Q91.39-15.16 92.44-17.74 93.49-20.31 95.39-22.23 97.28-24.15 99.89-25.26 102.5-26.37 105.63-26.37L105.63-26.37Q108.68-26.37 111.02-25.34 113.37-24.32 114.95-22.56 116.54-20.8 117.36-18.49 118.18-16.19 118.18-13.62L118.18-13.62Q118.18-10.64 117.11-8.07 116.05-5.49 114.15-3.59 112.24-1.68 109.63-0.6 107.02 0.49 103.92 0.49ZM104.94-3.74L104.94-3.74Q106.51-3.74 107.8-4.38 109.09-5.03 110.02-6.19 110.95-7.35 111.46-8.96 111.97-10.57 111.97-12.52L111.97-12.52Q111.97-14.43 111.47-16.16 110.97-17.9 110.02-19.23 109.07-20.56 107.7-21.35 106.34-22.14 104.6-22.14L104.6-22.14Q103.01-22.14 101.72-21.48 100.43-20.83 99.51-19.65 98.6-18.48 98.08-16.86 97.57-15.23 97.57-13.31L97.57-13.31Q97.57-11.38 98.07-9.64 98.57-7.91 99.52-6.59 100.48-5.27 101.84-4.5 103.21-3.74 104.94-3.74ZM124.77 0L124.77-25.88 129.55-25.88 130.38-21.46Q131.24-22.24 132.31-23.11 133.38-23.97 134.65-24.69 135.92-25.42 137.33-25.89 138.73-26.37 140.24-26.37L140.24-26.37Q142.03-26.37 143.48-25.7 144.93-25.02 145.96-23.82 146.98-22.61 147.54-20.92 148.11-19.24 148.11-17.24L148.11-17.24 148.11 0 142.17 0 142.17-16.53Q142.17-17.85 141.81-18.85 141.44-19.85 140.79-20.51 140.15-21.17 139.26-21.51 138.36-21.85 137.34-21.85L137.34-21.85Q135.53-21.85 133.92-20.92 132.31-20 130.67-18.48L130.67-18.48 130.67 0 124.77 0ZM154.62-1.22L155.67-5.66 156.11-5.93Q157.06-5.42 158.1-5 159.14-4.59 160.16-4.31 161.19-4.03 162.17-3.88 163.14-3.74 164-3.74L164-3.74Q166.22-3.74 167.48-4.66 168.73-5.59 168.73-7.03L168.73-7.03Q168.73-8.01 168.16-8.64 167.59-9.28 166.65-9.73 165.71-10.18 164.51-10.52 163.31-10.86 162.06-11.24 160.8-11.62 159.6-12.11 158.41-12.6 157.47-13.35 156.53-14.11 155.95-15.2 155.38-16.28 155.38-17.87L155.38-17.87Q155.38-19.65 156.15-21.22 156.92-22.78 158.34-23.91 159.77-25.05 161.81-25.71 163.85-26.37 166.39-26.37L166.39-26.37Q167.02-26.37 167.87-26.32 168.71-26.27 169.62-26.16 170.54-26.05 171.47-25.88 172.39-25.71 173.2-25.44L173.2-25.44 172.13-21.07 171.59-20.75Q170.86-21.12 170.01-21.39 169.17-21.66 168.33-21.81 167.49-21.97 166.69-22.06 165.9-22.14 165.29-22.14L165.29-22.14Q163.14-22.14 161.93-21.29 160.72-20.43 160.72-18.99L160.72-18.99Q160.72-17.99 161.31-17.35 161.9-16.7 162.84-16.25 163.78-15.8 165-15.47 166.22-15.14 167.48-14.76 168.73-14.38 169.95-13.89 171.17-13.4 172.11-12.65 173.05-11.89 173.64-10.79 174.23-9.69 174.23-8.08L174.23-8.08Q174.23-6.27 173.44-4.7 172.66-3.13 171.22-1.98 169.78-0.83 167.76-0.17 165.73 0.49 163.26 0.49L163.26 0.49Q161.24 0.49 158.97 0.05 156.7-0.39 154.62-1.22L154.62-1.22ZM187.19 0L177.93-25.88 184.48-25.88 189.51-9.3 190.63-4.44 191.12-4.44 192.22-9.3 197.29-25.88 202.89-25.88 188.99 13.09 183.52 13.09 188.99 0 187.19 0ZM206.59-1.22L207.64-5.66 208.08-5.93Q209.04-5.42 210.07-5 211.11-4.59 212.14-4.31 213.16-4.03 214.14-3.88 215.11-3.74 215.97-3.74L215.97-3.74Q218.19-3.74 219.45-4.66 220.71-5.59 220.71-7.03L220.71-7.03Q220.71-8.01 220.13-8.64 219.56-9.28 218.62-9.73 217.68-10.18 216.48-10.52 215.29-10.86 214.03-11.24 212.77-11.62 211.57-12.11 210.38-12.6 209.44-13.35 208.5-14.11 207.92-15.2 207.35-16.28 207.35-17.87L207.35-17.87Q207.35-19.65 208.12-21.22 208.89-22.78 210.32-23.91 211.75-25.05 213.78-25.71 215.82-26.37 218.36-26.37L218.36-26.37Q219-26.37 219.84-26.32 220.68-26.27 221.6-26.16 222.51-26.05 223.44-25.88 224.37-25.71 225.17-25.44L225.17-25.44 224.1-21.07 223.56-20.75Q222.83-21.12 221.99-21.39 221.14-21.66 220.3-21.81 219.46-21.97 218.67-22.06 217.87-22.14 217.26-22.14L217.26-22.14Q215.11-22.14 213.91-21.29 212.7-20.43 212.7-18.99L212.7-18.99Q212.7-17.99 213.28-17.35 213.87-16.7 214.81-16.25 215.75-15.8 216.97-15.47 218.19-15.14 219.45-14.76 220.71-14.38 221.93-13.89 223.15-13.4 224.09-12.65 225.03-11.89 225.61-10.79 226.2-9.69 226.2-8.08L226.2-8.08Q226.2-6.27 225.42-4.7 224.64-3.13 223.2-1.98 221.75-0.83 219.73-0.17 217.7 0.49 215.24 0.49L215.24 0.49Q213.21 0.49 210.94 0.05 208.67-0.39 206.59-1.22L206.59-1.22ZM234.91-7.15L234.91-21.66 229.71-21.66 230.15-24.44Q232.08-24.93 233.24-25.54 234.4-26.15 235.17-27.04 235.94-27.93 236.51-29.21 237.08-30.49 237.84-32.32L237.84-32.32 240.67-32.32 240.67-25.88 249.98-25.88 248.93-21.66 240.84-21.66 240.84-8.33Q240.84-7.13 241.19-6.31 241.53-5.49 242.16-4.98 242.8-4.47 243.69-4.24 244.58-4 245.7-4L245.7-4Q246.78-4 247.84-4.2 248.9-4.39 249.85-4.76L249.85-4.76 249.85-1.78Q248.19-0.66 246.3-0.09 244.41 0.49 242.48 0.49L242.48 0.49Q238.79 0.49 236.85-1.51 234.91-3.52 234.91-7.15L234.91-7.15ZM277.1-5.32L277.1-2.37Q276.02-1.61 274.78-1.07 273.53-0.54 272.21-0.18 270.9 0.17 269.59 0.33 268.28 0.49 267.11 0.49L267.11 0.49Q264.4 0.49 262.07-0.34 259.74-1.17 258.02-2.78 256.3-4.39 255.32-6.75 254.34-9.11 254.34-12.16L254.34-12.16Q254.34-15.41 255.44-18.04 256.54-20.68 258.38-22.52 260.23-24.37 262.66-25.37 265.08-26.37 267.72-26.37L267.72-26.37Q269.92-26.37 271.81-25.65 273.7-24.93 275.08-23.51 276.46-22.09 277.24-19.97 278.02-17.85 278.02-15.04L278.02-15.04Q278.02-14.36 277.96-13.59 277.9-12.82 277.76-12.08L277.76-12.08 260.47-12.08Q260.47-10.11 261.17-8.59 261.86-7.08 263.13-6.07 264.4-5.05 266.18-4.53 267.97-4 270.11-4L270.11-4Q270.72-4 271.54-4.05 272.36-4.1 273.29-4.25 274.22-4.39 275.19-4.65 276.17-4.91 277.1-5.32L277.1-5.32ZM260.47-14.97L272.53-14.97Q272.53-16.75 272.08-18.09 271.63-19.43 270.85-20.34 270.07-21.24 269.03-21.69 267.99-22.14 266.79-22.14L266.79-22.14Q265.45-22.14 264.3-21.61 263.16-21.07 262.3-20.1 261.45-19.14 260.96-17.82 260.47-16.5 260.47-14.97L260.47-14.97ZM284.78 0L284.78-25.88 289.57-25.88 290.4-21.46Q291.25-22.24 292.32-23.11 293.38-23.97 294.59-24.69 295.8-25.42 297.1-25.89 298.41-26.37 299.73-26.37L299.73-26.37Q300.9-26.37 302-25.99 303.1-25.61 304.02-24.95 304.95-24.29 305.66-23.38 306.37-22.46 306.76-21.36L306.76-21.36Q307.71-22.17 308.76-23.06 309.81-23.95 311.01-24.68 312.2-25.42 313.53-25.89 314.86-26.37 316.38-26.37L316.38-26.37Q318.18-26.37 319.62-25.66 321.06-24.95 322.08-23.72 323.09-22.49 323.64-20.81 324.19-19.14 324.19-17.19L324.19-17.19 324.19 0 318.26 0 318.26-16.53Q318.26-18.99 317.01-20.42 315.77-21.85 313.67-21.85L313.67-21.85Q312.79-21.85 311.99-21.59 311.2-21.34 310.44-20.89 309.69-20.43 308.93-19.8 308.17-19.17 307.37-18.43L307.37-18.43Q307.42-18.14 307.42-17.85 307.42-17.55 307.42-17.19L307.42-17.19 307.42 0 301.51 0 301.51-16.53Q301.51-17.75 301.17-18.74 300.82-19.73 300.21-20.42 299.6-21.12 298.75-21.48 297.89-21.85 296.87-21.85L296.87-21.85Q296.01-21.85 295.23-21.59 294.45-21.34 293.71-20.89 292.96-20.43 292.22-19.82 291.47-19.21 290.69-18.48L290.69-18.48 290.69 0 284.78 0ZM330.85-1.22L331.9-5.66 332.34-5.93Q333.29-5.42 334.33-5 335.37-4.59 336.39-4.31 337.42-4.03 338.4-3.88 339.37-3.74 340.23-3.74L340.23-3.74Q342.45-3.74 343.71-4.66 344.96-5.59 344.96-7.03L344.96-7.03Q344.96-8.01 344.39-8.64 343.82-9.28 342.88-9.73 341.94-10.18 340.74-10.52 339.54-10.86 338.29-11.24 337.03-11.62 335.83-12.11 334.64-12.6 333.7-13.35 332.76-14.11 332.18-15.2 331.61-16.28 331.61-17.87L331.61-17.87Q331.61-19.65 332.38-21.22 333.15-22.78 334.57-23.91 336-25.05 338.04-25.71 340.08-26.37 342.62-26.37L342.62-26.37Q343.25-26.37 344.1-26.32 344.94-26.27 345.85-26.16 346.77-26.05 347.7-25.88 348.62-25.71 349.43-25.44L349.43-25.44 348.36-21.07 347.82-20.75Q347.09-21.12 346.24-21.39 345.4-21.66 344.56-21.81 343.72-21.97 342.92-22.06 342.13-22.14 341.52-22.14L341.52-22.14Q339.37-22.14 338.16-21.29 336.95-20.43 336.95-18.99L336.95-18.99Q336.95-17.99 337.54-17.35 338.13-16.7 339.07-16.25 340.01-15.8 341.23-15.47 342.45-15.14 343.71-14.76 344.96-14.38 346.18-13.89 347.4-13.4 348.34-12.65 349.28-11.89 349.87-10.79 350.46-9.69 350.46-8.08L350.46-8.08Q350.46-6.27 349.67-4.7 348.89-3.13 347.45-1.98 346.01-0.83 343.99-0.17 341.96 0.49 339.49 0.49L339.49 0.49Q337.47 0.49 335.2 0.05 332.93-0.39 330.85-1.22L330.85-1.22Z" opacity="1" transform="matrix(1,0,0,1,0,0)" fill="#000000" class="wordmark-text-0" data-fill-palette-color="quaternary" id="text-0"></path></svg></g></svg></g><g transform="matrix(1,0,0,1,0,110.95231249110574)"><svg viewBox="0 0 395.52 38.70055693421825" height="38.70055693421825" width="395.52"><g transform="matrix(1,0,0,1,0,0)"><svg width="395.52" viewBox="-0.2 -36.75 476.25 46.6" height="38.70055693421825" data-palette-color="#030303"><path d="M3.85 9.65L3.85 9.65Q1.65 9.65 0.73 9.1-0.2 8.55-0.2 7.7L-0.2 7.7Q-0.2 7.1-0.05 6.45 0.1 5.8 0.4 5.4L0.4 5.4Q0.9 5.75 1.8 5.98 2.7 6.2 3.55 6.2L3.55 6.2Q4.75 6.2 5.7 5.05 6.65 3.9 7.2 0.8L7.2 0.8 1.2-23.9Q1.05-24.45 1.18-24.68 1.3-24.9 2.18-24.95 3.05-25 5.15-25L5.15-25 7.85-13.05Q8.15-11.55 8.4-10 8.65-8.45 8.8-7.13 8.95-5.8 9.08-5 9.2-4.2 9.2-4.2L9.2-4.2Q9.2-4.2 9.28-5 9.35-5.8 9.53-7.13 9.7-8.45 9.93-10.03 10.15-11.6 10.4-13.1L10.4-13.1 12.65-23.8Q12.75-24.45 12.95-24.68 13.15-24.9 14.05-24.95 14.95-25 17-25L17-25 10.85 1.35Q10.1 4.5 9.18 6.33 8.25 8.15 6.98 8.9 5.7 9.65 3.85 9.65ZM34.06 0.5L34.06 0.5Q32.16 0.5 30.69 0.03 29.21-0.45 28.21-1.8 27.21-3.15 26.71-5.73 26.21-8.3 26.21-12.5L26.21-12.5Q26.21-19.35 28.41-22.43 30.61-25.5 34.51-25.5L34.51-25.5Q37.16-25.5 38.89-24.4 40.61-23.3 41.46-20.5 42.31-17.7 42.31-12.65L42.31-12.65Q42.31-5.65 40.21-2.58 38.11 0.5 34.06 0.5ZM34.16-2.95L34.16-2.95Q35.26-2.95 36.09-3.73 36.91-4.5 37.41-6.6 37.91-8.7 37.91-12.6L37.91-12.6Q37.91-16.6 37.51-18.63 37.11-20.65 36.36-21.35 35.61-22.05 34.36-22.05L34.36-22.05Q33.26-22.05 32.41-21.28 31.56-20.5 31.09-18.4 30.61-16.3 30.61-12.4L30.61-12.4Q30.61-9.35 30.86-7.45 31.11-5.55 31.54-4.58 31.96-3.6 32.66-3.28 33.36-2.95 34.16-2.95ZM61.28 0.5L61.28 0.5Q58.28 0.5 56.68-0.4 55.08-1.3 54.45-3.15 53.83-5 53.83-7.8L53.83-7.8 53.83-24.2Q53.83-24.6 53.98-24.75 54.13-24.9 55-24.95 55.88-25 57.98-25L57.98-25 57.98-7.45Q57.98-5.85 58.25-4.88 58.53-3.9 59.25-3.48 59.98-3.05 61.33-3.05L61.33-3.05Q62.03-3.05 62.98-3.25 63.93-3.45 64.73-3.95L64.73-3.95 64.73-24.2Q64.73-24.6 64.9-24.75 65.08-24.9 65.9-24.95 66.73-25 68.78-25L68.78-25 68.78-1.3Q67.33-0.5 65.33 0 63.33 0.5 61.28 0.5ZM81.19 0L81.19 0 81.19-23.25Q82.64-24.3 84.39-24.9 86.14-25.5 87.99-25.5L87.99-25.5Q89.94-25.5 90.71-24.98 91.49-24.45 91.49-23.4L91.49-23.4Q91.49-23 91.39-22.33 91.29-21.65 91.04-21L91.04-21Q90.49-21.3 89.89-21.45 89.29-21.6 88.64-21.6L88.64-21.6Q87.79-21.6 86.91-21.33 86.04-21.05 85.34-20.5L85.34-20.5 85.29-0.8Q85.29-0.4 85.11-0.25 84.94-0.1 84.09-0.05 83.24 0 81.19 0ZM124.97 9.85L124.97 9.85Q121.62 9.85 119.87 9 118.12 8.15 117.52 6.9 116.92 5.65 116.92 4.4L116.92 4.4Q116.92 2.65 117.92 1.18 118.92-0.3 120.44-1.43 121.97-2.55 123.67-3.05L123.67-3.05 125.17-1.85Q124.22-1.45 123.27-0.6 122.32 0.25 121.72 1.3 121.12 2.35 121.12 3.45L121.12 3.45Q121.12 4.2 121.44 4.83 121.77 5.45 122.69 5.78 123.62 6.1 125.32 6.1L125.32 6.1Q128.02 6.1 129.22 4.83 130.42 3.55 130.42 2.25L130.42 2.25Q130.42 1.1 129.92 0.48 129.42-0.15 128.19-0.48 126.97-0.8 124.77-0.95L124.77-0.95Q122.67-1.15 121.07-1.55 119.47-1.95 118.57-2.65 117.67-3.35 117.67-4.35L117.67-4.35Q117.72-5.15 118.22-6.03 118.72-6.9 119.64-7.83 120.57-8.75 121.82-9.6L121.82-9.6 124.32-8.75Q124.02-8.55 123.47-8.03 122.92-7.5 122.47-6.88 122.02-6.25 122.02-5.7L122.02-5.7Q122.02-5.05 123.72-4.75 125.42-4.45 127.92-4.15L127.92-4.15Q129.87-3.85 131.37-3.23 132.87-2.6 133.69-1.45 134.52-0.3 134.52 1.7L134.52 1.7Q134.52 3.85 133.52 5.73 132.52 7.6 130.42 8.72 128.32 9.85 124.97 9.85ZM125.57-7.7L125.57-7.7Q122.57-7.7 120.87-8.85 119.17-10 118.47-11.98 117.77-13.95 117.77-16.35L117.77-16.35Q117.77-19.65 118.82-21.68 119.87-23.7 121.77-24.6 123.67-25.5 126.12-25.5L126.12-25.5Q126.67-25.5 127.49-25.35 128.32-25.2 129.02-24.95L129.02-24.95 129.87-23.15Q131.62-22.45 132.64-20.8 133.67-19.15 133.67-16.45L133.67-16.45Q133.67-13.8 132.84-11.85 132.02-9.9 130.24-8.8 128.47-7.7 125.57-7.7ZM125.77-10.8L125.77-10.8Q127.12-10.8 127.94-11.55 128.77-12.3 129.17-13.78 129.57-15.25 129.57-17.4L129.57-17.4Q129.57-20.15 128.67-21.33 127.77-22.5 125.92-22.5L125.92-22.5Q124.87-22.5 123.97-21.93 123.07-21.35 122.57-20.03 122.07-18.7 122.07-16.45L122.07-16.45Q122.07-14.7 122.34-13.43 122.62-12.15 123.42-11.48 124.22-10.8 125.77-10.8ZM133.57-21.6L133.57-21.6Q132.82-21.6 131.77-21.88 130.72-22.15 129.67-22.48 128.62-22.8 127.94-23.05 127.27-23.3 127.27-23.3L127.27-23.3 126.82-25.1 134.57-25.1Q134.72-24.85 134.84-24.38 134.97-23.9 134.97-23.2L134.97-23.2Q134.97-22.35 134.59-21.98 134.22-21.6 133.57-21.6ZM145.63 0L145.63 0 145.63-23.25Q147.08-24.3 148.83-24.9 150.58-25.5 152.43-25.5L152.43-25.5Q154.38-25.5 155.15-24.98 155.93-24.45 155.93-23.4L155.93-23.4Q155.93-23 155.83-22.33 155.73-21.65 155.48-21L155.48-21Q154.93-21.3 154.33-21.45 153.73-21.6 153.08-21.6L153.08-21.6Q152.23-21.6 151.35-21.33 150.48-21.05 149.78-20.5L149.78-20.5 149.73-0.8Q149.73-0.4 149.55-0.25 149.38-0.1 148.53-0.05 147.68 0 145.63 0ZM172.64 0.5L172.64 0.5Q170.74 0.5 169.27 0.03 167.79-0.45 166.79-1.8 165.79-3.15 165.29-5.73 164.79-8.3 164.79-12.5L164.79-12.5Q164.79-19.35 166.99-22.43 169.19-25.5 173.09-25.5L173.09-25.5Q175.74-25.5 177.47-24.4 179.19-23.3 180.04-20.5 180.89-17.7 180.89-12.65L180.89-12.65Q180.89-5.65 178.79-2.58 176.69 0.5 172.64 0.5ZM172.74-2.95L172.74-2.95Q173.84-2.95 174.67-3.73 175.49-4.5 175.99-6.6 176.49-8.7 176.49-12.6L176.49-12.6Q176.49-16.6 176.09-18.63 175.69-20.65 174.94-21.35 174.19-22.05 172.94-22.05L172.94-22.05Q171.84-22.05 170.99-21.28 170.14-20.5 169.67-18.4 169.19-16.3 169.19-12.4L169.19-12.4Q169.19-9.35 169.44-7.45 169.69-5.55 170.12-4.58 170.54-3.6 171.24-3.28 171.94-2.95 172.74-2.95ZM207.61 0.3L207.61 0.3Q207.06 0.3 206.41-0.33 205.76-0.95 205.46-2.3L205.46-2.3 204.81-5.65Q204.41-7.55 204.08-9.6 203.76-11.65 203.51-13.6 203.26-15.55 203.08-17.13 202.91-18.7 202.83-19.65 202.76-20.6 202.76-20.6L202.76-20.6 202.16-22.9Q202.11-23.25 202.33-23.78 202.56-24.3 203.01-24.3L203.01-24.3 205.01-24.3 206.96-13.8Q207.31-12.4 207.58-10.8 207.86-9.2 208.06-7.8 208.26-6.4 208.38-5.53 208.51-4.65 208.51-4.65L208.51-4.65 208.76-4.65Q208.91-6.2 209.13-8.28 209.36-10.35 209.68-12.6 210.01-14.85 210.31-16.85L210.31-16.85 211.61-24.1Q211.66-24.55 211.88-24.73 212.11-24.9 212.93-24.95 213.76-25 215.61-25L215.61-25Q215.61-25 215.33-23.65 215.06-22.3 214.58-20.05 214.11-17.8 213.56-15.1 213.01-12.4 212.43-9.73 211.86-7.05 211.36-4.8 210.86-2.55 210.56-1.2 210.26 0.15 210.21 0.15L210.21 0.15Q210.21 0.15 209.53 0.23 208.86 0.3 207.61 0.3ZM196.66 0.3L196.66 0.3Q196.01 0.3 195.58-0.4 195.16-1.1 194.91-2.15L194.91-2.15Q194.56-3.7 194.06-5.88 193.56-8.05 193.03-10.53 192.51-13 191.98-15.43 191.46-17.85 191.03-19.83 190.61-21.8 190.36-22.98 190.11-24.15 190.11-24.15L190.11-24.15Q190.06-24.6 190.28-24.75 190.51-24.9 191.46-24.95 192.41-25 194.51-25L194.51-25 196.01-16.85Q196.41-14.75 196.73-12.6 197.06-10.45 197.28-8.65 197.51-6.85 197.63-5.75 197.76-4.65 197.76-4.65L197.76-4.65 198.06-4.65Q198.16-5.55 198.38-7.13 198.61-8.7 198.91-10.53 199.21-12.35 199.46-13.9L199.46-13.9 201.01-23.45Q201.11-24 201.36-24.15 201.61-24.3 202.36-24.3L202.36-24.3 203.46-24.3Q203.96-24.3 203.91-24.05 203.86-23.8 203.63-23.48 203.41-23.15 203.36-22.9L203.36-22.9 203.26-20.65Q203.26-20.65 203.16-19.73 203.06-18.8 202.88-17.18 202.71-15.55 202.46-13.6 202.21-11.65 201.91-9.58 201.61-7.5 201.16-5.65L201.16-5.65 200.06 0.15Q200.06 0.15 199.46 0.18 198.86 0.2 198.08 0.25 197.31 0.3 196.66 0.3ZM233.32 0.5L233.32 0.5Q231.22 0.5 230.19-0.43 229.17-1.35 228.87-3.03 228.57-4.7 228.57-6.95L228.57-6.95 228.57-21.5 225.17-21.5Q225.17-23.1 225.19-23.83 225.22-24.55 225.42-24.78 225.62-25 226.02-25L226.02-25 228.57-25 228.57-32.6Q228.57-33.35 228.89-33.63 229.22-33.9 230.09-33.95 230.97-34 232.62-34L232.62-34 232.62-25 237.72-25Q237.72-23.45 237.69-22.7 237.67-21.95 237.49-21.73 237.32-21.5 236.92-21.5L236.92-21.5 232.62-21.5 232.62-6.95Q232.62-5.9 232.69-4.98 232.77-4.05 233.14-3.53 233.52-3 234.42-3L234.42-3Q235.27-3 235.92-3.18 236.57-3.35 237.32-3.75L237.32-3.75Q237.42-3.35 237.52-2.85 237.62-2.35 237.62-1.7L237.62-1.7Q237.62-0.8 236.94-0.33 236.27 0.15 235.29 0.33 234.32 0.5 233.32 0.5ZM248.93 0L248.93 0 248.93-34.9Q248.93-35.85 249.26-36.23 249.58-36.6 250.46-36.68 251.33-36.75 252.98-36.75L252.98-36.75 252.98-23.55Q254.13-24.55 255.66-25.03 257.18-25.5 258.58-25.5L258.58-25.5Q260.73-25.5 261.86-24.73 262.98-23.95 263.38-22.5 263.78-21.05 263.78-18.9L263.78-18.9 263.78-0.8Q263.78-0.4 263.56-0.25 263.33-0.1 262.46-0.05 261.58 0 259.63 0L259.63 0 259.63-17.8Q259.63-19.45 259.11-20.6 258.58-21.75 256.73-21.75L256.73-21.75Q255.88-21.75 254.88-21.45 253.88-21.15 252.98-20.35L252.98-20.35 252.98-0.8Q252.98-0.4 252.81-0.25 252.63-0.1 251.78-0.05 250.93 0 248.93 0ZM293.66 9.85L293.66 9.85Q292.61 9.85 292.16 9.47 291.71 9.1 291.71 8.1L291.71 8.1 291.71-23.5Q293.21-24.45 295.11-24.98 297.01-25.5 299.01-25.5L299.01-25.5Q301.51-25.5 303.33-24.63 305.16-23.75 306.16-21.48 307.16-19.2 307.16-15.1L307.16-15.1Q307.16-11.1 306.71-8.33 306.26-5.55 305.51-3.8 304.76-2.05 303.78-1.13 302.81-0.2 301.78 0.15 300.76 0.5 299.71 0.5L299.71 0.5Q298.36 0.5 297.33 0.1 296.31-0.3 295.76-0.9L295.76-0.9 295.76 9.5Q295.26 9.65 294.71 9.75 294.16 9.85 293.66 9.85ZM298.46-3.15L298.46-3.15Q299.06-3.15 299.76-3.5 300.46-3.85 301.13-5 301.81-6.15 302.23-8.45 302.66-10.75 302.66-14.65L302.66-14.65Q302.66-17.65 302.23-19.23 301.81-20.8 300.96-21.38 300.11-21.95 298.81-21.95L298.81-21.95Q297.11-21.95 295.76-21L295.76-21 295.76-4.8Q296.31-3.9 297.01-3.53 297.71-3.15 298.46-3.15ZM325.02 0.5L325.02 0.5Q323.62 0.5 322.35 0.28 321.07 0.05 320.07-0.73 319.07-1.5 318.47-3 317.87-4.5 317.87-7.1L317.87-7.1Q317.87-9.7 318.42-11.33 318.97-12.95 319.92-13.83 320.87-14.7 322.07-15 323.27-15.3 324.52-15.3L324.52-15.3Q325.32-15.3 326.4-15.15 327.47-15 328.22-14.65L328.22-14.65Q328.22-14.65 328.22-15.35 328.22-16.05 328.22-16.98 328.22-17.9 328.22-18.6L328.22-18.6Q328.22-19.8 327.85-20.43 327.47-21.05 326.8-21.33 326.12-21.6 325.12-21.6L325.12-21.6Q323.17-21.6 321.37-21.25 319.57-20.9 318.47-20.45L318.47-20.45Q318.12-21.05 318.02-21.68 317.92-22.3 317.92-22.8L317.92-22.8Q317.92-23.15 318.05-23.55 318.17-23.95 318.47-24.15L318.47-24.15Q319.12-24.55 321.17-25.03 323.22-25.5 326.07-25.5L326.07-25.5Q329.32-25.5 330.8-24.15 332.27-22.8 332.27-19.4L332.27-19.4 332.27-16.75Q332.27-13.9 332.25-11.03 332.22-8.15 332.17-5.63 332.12-3.1 331.97-1.2L331.97-1.2Q330.97-0.6 329.22-0.05 327.47 0.5 325.02 0.5ZM325.42-2.9L325.42-2.9Q326.22-2.9 326.97-3.15 327.72-3.4 328.02-3.75L328.02-3.75Q328.12-4.55 328.15-5.95 328.17-7.35 328.2-8.9 328.22-10.45 328.22-11.8L328.22-11.8Q327.72-12.05 327.05-12.15 326.37-12.25 325.87-12.25L325.87-12.25Q325.07-12.25 324.4-12.08 323.72-11.9 323.22-11.38 322.72-10.85 322.42-9.85 322.12-8.85 322.12-7.2L322.12-7.2Q322.12-5.85 322.35-5 322.57-4.15 323.02-3.68 323.47-3.2 324.07-3.05 324.67-2.9 325.42-2.9ZM344.29 0L344.29 0 344.29-23.25Q345.74-24.3 347.49-24.9 349.24-25.5 351.09-25.5L351.09-25.5Q353.04-25.5 353.81-24.98 354.59-24.45 354.59-23.4L354.59-23.4Q354.59-23 354.49-22.33 354.39-21.65 354.14-21L354.14-21Q353.59-21.3 352.99-21.45 352.39-21.6 351.74-21.6L351.74-21.6Q350.89-21.6 350.01-21.33 349.14-21.05 348.44-20.5L348.44-20.5 348.39-0.8Q348.39-0.4 348.21-0.25 348.04-0.1 347.19-0.05 346.34 0 344.29 0ZM372.2 0.5L372.2 0.5Q370.1 0.5 369.07-0.43 368.05-1.35 367.75-3.03 367.45-4.7 367.45-6.95L367.45-6.95 367.45-21.5 364.05-21.5Q364.05-23.1 364.07-23.83 364.1-24.55 364.3-24.78 364.5-25 364.9-25L364.9-25 367.45-25 367.45-32.6Q367.45-33.35 367.77-33.63 368.1-33.9 368.97-33.95 369.85-34 371.5-34L371.5-34 371.5-25 376.6-25Q376.6-23.45 376.57-22.7 376.55-21.95 376.37-21.73 376.2-21.5 375.8-21.5L375.8-21.5 371.5-21.5 371.5-6.95Q371.5-5.9 371.57-4.98 371.65-4.05 372.02-3.53 372.4-3 373.3-3L373.3-3Q374.15-3 374.8-3.18 375.45-3.35 376.2-3.75L376.2-3.75Q376.3-3.35 376.4-2.85 376.5-2.35 376.5-1.7L376.5-1.7Q376.5-0.8 375.82-0.33 375.15 0.15 374.17 0.33 373.2 0.5 372.2 0.5ZM387.81 0L387.81 0 387.81-23.8Q388.81-24.25 390.16-24.63 391.51-25 392.96-25.25 394.41-25.5 395.76-25.5L395.76-25.5Q398.36-25.5 399.91-24.83 401.46-24.15 402.11-22.7 402.76-21.25 402.76-18.8L402.76-18.8 402.76-0.8Q402.76-0.4 402.56-0.25 402.36-0.1 401.51-0.05 400.66 0 398.56 0L398.56 0 398.56-17.6Q398.56-19.95 398.01-20.95 397.46-21.95 395.61-21.95L395.61-21.95Q394.76-21.95 393.71-21.75 392.66-21.55 391.86-21.05L391.86-21.05 391.86-0.8Q391.86-0.4 391.69-0.25 391.51-0.1 390.66-0.05 389.81 0 387.81 0ZM422.53 0.5L422.53 0.5Q420.83 0.5 419.35 0.03 417.88-0.45 416.8-1.7 415.73-2.95 415.15-5.25 414.58-7.55 414.58-11.2L414.58-11.2Q414.58-15.9 415.33-18.75 416.08-21.6 417.33-23.05 418.58-24.5 420.18-25 421.78-25.5 423.43-25.5L423.43-25.5Q426.58-25.5 428.18-23.5 429.78-21.5 429.78-17.45L429.78-17.45Q429.78-15.8 429.65-14.05 429.53-12.3 429.18-10.95L429.18-10.95Q427.48-10.6 425.38-10.45 423.28-10.3 421.38-10.23 419.48-10.15 418.25-10.15 417.03-10.15 417.03-10.15L417.03-10.15 417.08-13.45Q417.08-13.45 418.03-13.43 418.98-13.4 420.35-13.43 421.73-13.45 423.15-13.58 424.58-13.7 425.58-14L425.58-14Q425.73-14.7 425.78-15.5 425.83-16.3 425.83-17L425.83-17Q425.78-19.7 425.2-20.83 424.63-21.95 422.98-21.95L422.98-21.95Q422.13-21.95 421.35-21.48 420.58-21 419.98-19.83 419.38-18.65 419.05-16.6 418.73-14.55 418.73-11.35L418.73-11.35Q418.73-9 419-7.45 419.28-5.9 419.85-5.05 420.43-4.2 421.3-3.83 422.18-3.45 423.43-3.45L423.43-3.45Q424.93-3.45 426.4-3.85 427.88-4.25 429.08-5L429.08-5Q429.33-4.4 429.4-3.63 429.48-2.85 429.48-2.25L429.48-2.25Q429.48-1.5 428.53-0.85 427.58-0.2 426 0.15 424.43 0.5 422.53 0.5ZM441.24 0L441.24 0 441.24-23.25Q442.69-24.3 444.44-24.9 446.19-25.5 448.04-25.5L448.04-25.5Q449.99-25.5 450.76-24.98 451.54-24.45 451.54-23.4L451.54-23.4Q451.54-23 451.44-22.33 451.34-21.65 451.09-21L451.09-21Q450.54-21.3 449.94-21.45 449.34-21.6 448.69-21.6L448.69-21.6Q447.84-21.6 446.96-21.33 446.09-21.05 445.39-20.5L445.39-20.5 445.34-0.8Q445.34-0.4 445.16-0.25 444.99-0.1 444.14-0.05 443.29 0 441.24 0ZM467.65 0.5L467.65 0.5Q465 0.5 463.28-0.13 461.55-0.75 461.55-2.05L461.55-2.05Q461.55-2.5 461.7-3.13 461.85-3.75 462.25-4.4L462.25-4.4Q463.35-3.75 464.58-3.45 465.8-3.15 467.25-3.15L467.25-3.15Q469.15-3.15 470.23-3.93 471.3-4.7 471.3-6.25L471.3-6.25Q471.3-7.25 470.88-8.2 470.45-9.15 469.3-10.15L469.3-10.15 464.45-14.3Q462.75-15.7 462.18-17.03 461.6-18.35 461.6-19.6L461.6-19.6Q461.6-21.35 462.48-22.68 463.35-24 465.18-24.75 467-25.5 469.75-25.5L469.75-25.5Q472.35-25.5 473.68-25 475-24.5 475.53-23.88 476.05-23.25 476.05-22.7L476.05-22.7Q476.05-21.65 475.15-20.65L475.15-20.65Q474.05-21.35 472.85-21.65 471.65-21.95 470.25-21.95L470.25-21.95Q468.45-21.95 467.38-21.33 466.3-20.7 466.3-19.55L466.3-19.55Q466.3-18.9 466.68-18.2 467.05-17.5 468.3-16.45L468.3-16.45 472.95-12.7Q474.6-11.15 475.25-9.75 475.9-8.35 475.9-6.45L475.9-6.45Q475.9-3.15 473.7-1.33 471.5 0.5 467.65 0.5Z" opacity="1" transform="matrix(1,0,0,1,0,0)" fill="#ffffff" class="slogan-text-1" data-fill-palette-color="secondary" id="text-1"></path></svg></g></svg></g></svg></g></svg></g><g><svg viewBox="0 0 231.35726255724884 206.82026554579775" height="206.82026554579775" width="231.35726255724884"><g><svg xmlns="http://www.w3.org/2000/svg" xmlns:xlink="http://www.w3.org/1999/xlink" version="1.1" x="0" y="0" viewBox="5 9.773 89.99900059435494 80.45400000000001" enable-background="new 0 0 100 100" xml:space="preserve" height="206.82026554579775" width="231.35726255724884" class="icon-icon-0" data-fill-palette-color="accent" id="icon-0"><g fill="#000000" data-fill-palette-color="accent"><path fill="none" d="M66.086 30.117c-0.479 0-0.914-0.155-1.223-0.323l-0.222 0.861c0.28 0.162 0.759 0.295 1.254 0.315v0.701h0.723V30.92c0.845-0.146 1.31-0.707 1.31-1.362 0-0.665-0.352-1.068-1.23-1.379-0.626-0.237-0.884-0.391-0.884-0.634 0-0.206 0.155-0.413 0.635-0.413 0.53 0 0.868 0.169 1.061 0.25l0.214-0.833c-0.243-0.118-0.575-0.22-1.069-0.243v-0.649h-0.723v0.702c-0.788 0.154-1.245 0.663-1.245 1.312 0 0.716 0.538 1.084 1.327 1.349 0.545 0.186 0.781 0.361 0.781 0.642C66.794 29.956 66.507 30.117 66.086 30.117z"></path><path fill="none" d="M11.406 67.191c0 0.123 0.101 0.225 0.225 0.225h76.74c0.124 0 0.224-0.102 0.224-0.225V19.549H11.406V67.191zM47.666 61.637h-6.118V42.884h6.118V61.637zM56.333 61.637h-6.119V47.965h6.119V61.637zM64.998 61.637h-6.116V39.392h6.116V61.637zM66.285 24.077c2.535 0 4.589 2.054 4.589 4.587s-2.054 4.589-4.589 4.589c-2.534 0-4.588-2.055-4.588-4.589S63.751 24.077 66.285 24.077zM35.457 43.229l8.667-7.076c0.004-0.005 0.009-0.006 0.015-0.011 0.021-0.015 0.042-0.029 0.063-0.042 0.022-0.014 0.044-0.028 0.066-0.041 0.019-0.008 0.037-0.015 0.055-0.023 0.028-0.011 0.057-0.022 0.084-0.03 0.019-0.004 0.036-0.006 0.053-0.01 0.031-0.005 0.06-0.012 0.091-0.014 0.021-0.002 0.041 0 0.063 0.001 0.026 0 0.054-0.001 0.082 0.001 0.023 0.002 0.045 0.009 0.068 0.014 0.026 0.006 0.051 0.009 0.077 0.018 0.021 0.007 0.04 0.018 0.061 0.026 0.025 0.011 0.052 0.022 0.079 0.036 0.003 0.003 0.009 0.003 0.015 0.007l8.156 4.799 6.931-6.867h-1.635c-0.421 0-0.765-0.343-0.765-0.766 0-0.422 0.344-0.765 0.765-0.765h3.492c0.001 0 0.001 0 0.003 0s0.003 0.001 0.004 0.001c0.101 0 0.193 0.02 0.279 0.056 0.004 0.001 0.005 0.001 0.007 0.001 0.095 0.041 0.179 0.097 0.25 0.169h0.001v0.001c0.07 0.072 0.127 0.154 0.165 0.248 0.002 0.007 0.002 0.011 0.004 0.016 0.033 0.086 0.051 0.177 0.051 0.273v0.003 3.488c0 0.423-0.34 0.766-0.764 0.766-0.421 0-0.763-0.343-0.763-0.766v-1.657l-7.366 7.298c0 0.001 0 0.001-0.001 0.003-0.065 0.062-0.141 0.109-0.223 0.145-0.021 0.01-0.041 0.018-0.061 0.026-0.083 0.028-0.166 0.047-0.252 0.047 0 0 0 0.001-0.002 0.001-0.086 0-0.171-0.02-0.255-0.05-0.021-0.007-0.044-0.018-0.063-0.026-0.024-0.01-0.047-0.016-0.069-0.029l-8.207-4.829-8.254 6.741c-0.142 0.117-0.313 0.171-0.483 0.171-0.222 0-0.442-0.095-0.592-0.28C35.081 43.977 35.129 43.497 35.457 43.229zM32.881 49.96h6.118v11.676h-6.118V49.96z"></path><rect x="41.547" y="42.884" width="6.118" height="18.752" fill="#ffffff" data-fill-palette-color="accent"></rect><rect x="50.214" y="47.965" width="6.119" height="13.671" fill="#ffffff" data-fill-palette-color="accent"></rect><rect x="58.882" y="39.392" width="6.116" height="22.245" fill="#ffffff" data-fill-palette-color="accent"></rect><rect x="32.881" y="49.96" width="6.118" height="11.676" fill="#ffffff" data-fill-palette-color="accent"></rect><path d="M35.94 44.586c0.171 0 0.342-0.055 0.483-0.171l8.254-6.741 8.207 4.829c0.022 0.013 0.045 0.019 0.069 0.029 0.02 0.009 0.042 0.019 0.063 0.026 0.084 0.03 0.169 0.05 0.255 0.05 0.002 0 0.002-0.001 0.002-0.001 0.086 0 0.169-0.019 0.252-0.047 0.02-0.008 0.04-0.016 0.061-0.026 0.082-0.036 0.157-0.083 0.223-0.145 0.001-0.002 0.001-0.002 0.001-0.003l7.366-7.298v1.657c0 0.423 0.342 0.766 0.763 0.766 0.424 0 0.764-0.343 0.764-0.766v-3.488-0.003c0-0.096-0.018-0.187-0.051-0.273-0.002-0.004-0.002-0.009-0.004-0.016-0.038-0.093-0.095-0.176-0.165-0.248v-0.001h-0.001c-0.071-0.072-0.155-0.128-0.25-0.169-0.002 0-0.003 0-0.007-0.001-0.086-0.036-0.179-0.055-0.279-0.056-0.001 0-0.002-0.001-0.004-0.001s-0.002 0-0.003 0h-3.492c-0.421 0-0.765 0.343-0.765 0.765 0 0.423 0.344 0.766 0.765 0.766h1.635l-6.931 6.867-8.156-4.799c-0.005-0.004-0.011-0.004-0.015-0.007-0.026-0.014-0.053-0.025-0.079-0.036-0.021-0.008-0.041-0.019-0.061-0.026-0.026-0.008-0.051-0.012-0.077-0.018-0.023-0.004-0.045-0.012-0.068-0.014-0.028-0.002-0.056-0.001-0.082-0.001-0.022-0.001-0.042-0.003-0.063-0.001-0.031 0.001-0.061 0.008-0.091 0.014-0.018 0.003-0.034 0.005-0.053 0.01-0.027 0.008-0.056 0.02-0.084 0.03-0.019 0.008-0.037 0.015-0.055 0.023-0.022 0.012-0.044 0.027-0.066 0.041-0.02 0.013-0.042 0.026-0.063 0.042-0.005 0.004-0.011 0.005-0.015 0.011l-8.667 7.076c-0.327 0.268-0.376 0.748-0.108 1.077C35.499 44.491 35.719 44.586 35.94 44.586z" fill="#ffffff" data-fill-palette-color="accent"></path><path d="M66.285 33.253c2.535 0 4.589-2.055 4.589-4.589s-2.054-4.587-4.589-4.587c-2.534 0-4.588 2.054-4.588 4.587S63.751 33.253 66.285 33.253zM66.013 29.018c-0.789-0.265-1.327-0.633-1.327-1.349 0-0.648 0.457-1.157 1.245-1.312v-0.702h0.723v0.649c0.494 0.023 0.826 0.125 1.069 0.243l-0.214 0.833c-0.192-0.082-0.53-0.25-1.061-0.25-0.479 0-0.635 0.207-0.635 0.413 0 0.243 0.258 0.397 0.884 0.634 0.879 0.311 1.23 0.714 1.23 1.379 0 0.655-0.465 1.217-1.31 1.362v0.752h-0.723v-0.701c-0.495-0.021-0.974-0.153-1.254-0.315l0.222-0.861c0.309 0.168 0.744 0.323 1.223 0.323 0.421 0 0.708-0.161 0.708-0.457C66.794 29.379 66.558 29.204 66.013 29.018z" fill="#ffffff" data-fill-palette-color="accent"></path><path d="M92.183 13.915H52.818V12.59c0-1.556-1.263-2.817-2.818-2.817-1.556 0-2.817 1.261-2.817 2.817v1.325H7.817C6.261 13.915 5 15.177 5 16.732c0 1.498 1.173 2.712 2.65 2.8v47.659c0 2.194 1.786 3.98 3.98 3.98h33.836L29.618 87.021c-0.733 0.734-0.733 1.923 0 2.656 0.367 0.366 0.848 0.55 1.328 0.55s0.961-0.184 1.328-0.55l15.849-15.849v9.657c0 1.037 0.841 1.878 1.878 1.878 1.037 0 1.878-0.841 1.878-1.878v-9.658l15.85 15.85c0.366 0.366 0.847 0.55 1.327 0.55s0.962-0.184 1.328-0.55c0.733-0.733 0.733-1.922 0-2.656L54.535 71.172H88.37c2.194 0 3.979-1.786 3.979-3.98V19.532c1.477-0.088 2.65-1.302 2.65-2.8C95 15.177 93.739 13.915 92.183 13.915zM88.594 67.191c0 0.123-0.1 0.225-0.224 0.225H11.63c-0.124 0-0.225-0.102-0.225-0.225V19.549h77.188V67.191z" fill="#ffffff" data-fill-palette-color="accent"></path></g></svg></g></svg></g></svg></g><defs></defs></svg><rect width="395.52" height="128.09350444801538" fill="none" stroke="none" visibility="hidden"></rect></g></svg></g></svg>